<svg width="160" height="22" viewBox="0 0 160 22" fill="none" xmlns="http://www.w3.org/2000/svg">
<path fill-rule="evenodd" clip-rule="evenodd" d="M2.13077 6.54454H9.85817V20.4868H18.9228V6.54454H26.5923V1.51324H2.13077V6.54454Z" fill="#9CDBD9"/>
<path fill-rule="evenodd" clip-rule="evenodd" d="M53.5 6.56516V1.51324H39.1093H34.8098H29.8539V20.4868H30.6897H39.1093H53.5V15.4959H39.1093V13.3478H52.007V8.7133H39.1093V6.56516H53.5Z" fill="#9CDBD9"/>
<path fill-rule="evenodd" clip-rule="evenodd" d="M55.9461 20.4868H64.1V1.51324H55.9461V20.4868Z" fill="#9CDBD9"/>
<path fill-rule="evenodd" clip-rule="evenodd" d="M142.785 1.51324C134.904 1.51324 128.516 5.76068 128.516 11.0002C128.516 16.2394 134.904 20.4868 142.785 20.4868C150.665 20.4868 157.054 16.2394 157.054 11.0002C157.054 5.76068 150.665 1.51324 142.785 1.51324ZM142.785 15.6067C139.931 15.6067 137.617 13.5443 137.617 11.0002C137.617 8.45577 139.931 6.39335 142.785 6.39335C145.639 6.39335 147.952 8.45577 147.952 11.0002C147.952 13.5443 145.639 15.6067 142.785 15.6067ZM115.957 12.5862C115.226 14.3476 113.321 15.6067 111.079 15.6067C108.206 15.6067 105.877 13.5443 105.877 10.9999C105.877 8.45577 108.206 6.39304 111.079 6.39304C113.373 6.39304 115.317 7.71079 116.008 9.53674H125.254C124.186 4.99387 118.256 1.51324 111.079 1.51324C103.146 1.51324 96.7154 5.76037 96.7154 10.9999C96.7154 16.2394 103.146 20.4868 111.079 20.4868C118.191 20.4868 124.08 17.0689 125.225 12.5862H115.957ZM80.8154 8.57526C78.5848 8.57526 76.7763 8.07985 76.7763 7.46902C76.7763 6.85787 78.5848 6.36278 80.8154 6.36278C83.0461 6.36278 84.8545 6.85787 84.8545 7.46902H94.2693C94.2693 4.17963 88.2459 1.51324 80.8154 1.51324C73.3849 1.51324 67.3615 4.17963 67.3615 7.46902C67.3615 10.7584 73.3849 13.4248 80.8154 13.4248C83.0461 13.4248 84.8545 13.9199 84.8545 14.531C84.8545 15.1422 83.0461 15.6373 80.8154 15.6373C78.5848 15.6373 76.7763 15.1422 76.7763 14.531H67.3615C67.3615 17.8204 73.3849 20.4868 80.8154 20.4868C88.2459 20.4868 94.2693 17.8204 94.2693 14.531C94.2693 11.2416 88.2459 8.57526 80.8154 8.57526Z" fill="#9CDBD9"/>
</svg>
